<svg xmlns="http://www.w3.org/2000/svg" width="42" height="42" viewBox="-10 -10 42 42">
  <path fill="#fff" fill-rule="evenodd" d="M103.848163,46.8797351 C104.683548,47.7544593 105.650144,48.2608775 106.481154,49.1402051 C107.176578,49.8768148 107.172204,50.7791619 106.472406,51.5249796 C106.000043,52.0267944 105.497063,52.5055909 105.050942,53.0304252 C104.399255,53.7992611 103.585739,54.0478675 102.649759,53.9926216 C101.289527,53.9143562 100.038638,53.4401644 98.831486,52.8232533 C96.1503848,51.4513189 93.8585461,49.5499443 91.938475,47.1467563 C90.5170102,45.3696848 89.3448484,43.4314818 88.5750706,41.2492758 C88.1989291,40.1950026 87.9321311,39.1131077 88.0152321,37.9667588 C88.0677169,37.2623755 88.31702,36.6592771 88.8112524,36.1666691 C89.3448484,35.6326268 89.8478283,35.0755662 90.3726769,34.532317 C91.05498,33.8233303 91.9122326,33.8233303 92.5989095,34.5277123 C93.023162,34.9650745 93.2832683,35.5229647 93.6147976,35.9924147 C93.9463706,36.4618659 94.3396572,37.0598083 94.7464148,37.492567 C95.4637079,38.2521949 95.4637079,39.1361272 94.7507886,39.8911517 C94.2390612,40.4344008 94.0641117,40.6277613 93.5436369,41.157199 C93.4080509,41.299917 93.3949298,41.4150121 93.4649096,41.5899577 C93.8104348,42.4554739 94.3046673,43.2243099 94.860132,43.9425046 C95.9798089,45.388101 97.2438192,46.6725631 98.7527588,47.6715905 C99.0764154,47.8833659 99.435062,48.0398954 99.7718398,48.2332546 C99.9424156,48.3345395 100.060506,48.3023119 100.200466,48.1503871 C100.712193,47.5979298 101.101456,47.4229842 101.621931,46.8797351 C102.304234,46.166145 103.161487,46.166145 103.848163,46.8797351 Z M110,37.500133 C110,40.5375308 107.537561,43 104.500089,43 C103.387709,43 102.352461,42.6697767 101.487026,42.1020242 C101.117126,41.8593583 99.3,42.5 99.3,42.5 C99.3,42.5 99.9691197,40.6439672 99.766259,40.3019981 C99.279473,39.4814064 99,38.523395 99,37.500133 C99,34.4622696 101.462462,32 104.500089,32 C107.537561,32 110,34.4622696 110,37.500133 Z M103.738832,39.7505047 L102.766637,39.7505047 L102.766637,40.4801273 L106.077377,40.4801273 L106.077377,39.7505047 L105.247773,39.7505047 L105.247773,36.0922221 L104.711027,36.0922221 L104.711027,36.0908352 L102.766637,36.0908352 L102.766637,36.8320141 L103.738832,36.8320141 L103.738832,39.7505047 Z M104.419143,35.3238179 C104.878631,35.3238179 105.251119,34.9549026 105.251119,34.4998224 C105.251119,34.0447422 104.878631,33.6758269 104.419143,33.6758269 C103.959656,33.6758269 103.587168,34.0447422 103.587168,34.4998224 C103.587168,34.9549026 103.959656,35.3238179 104.419143,35.3238179 Z" transform="translate(-88 -32)"/>
</svg>
