<svg xmlns="http://www.w3.org/2000/svg" width="42" height="42" viewBox="-8 -11 42 42">
  <path fill="#FFF" fill-rule="evenodd" d="M90.4224913,43.6913222 C90.2605885,43.9526414 89.9490066,43.9633439 89.7624335,43.718364 C89.6776982,43.6071083 89.620823,43.4747676 89.5374836,43.3622444 C88.8258519,42.4014881 88.1116756,41.4425995 87.3966351,40.4843904 C87.2655266,40.3086738 87.1270333,40.138458 87,39.9759496 C88.5746285,37.6414334 90.1376831,35.3241097 91.7053149,33 C91.8799027,33.084286 92.0640515,33.1766215 92.2510062,33.2628922 C93.5019518,33.8401282 94.7888392,34.3079328 96.1562592,34.5226962 C96.9907748,34.6537908 97.3655743,34.6493236 98.3953996,34.5189323 C98.3281086,34.6237418 98.2937109,34.7265729 98.2223046,34.7796001 C97.9800772,34.9594187 97.7260235,35.123551 97.4735732,35.2892832 C97.4042602,35.3347956 97.3224364,35.3608239 97.2505451,35.4029066 C96.8628431,35.62993 96.4336375,35.5908019 96.0156781,35.5797502 C94.6590408,35.5438726 93.3811068,35.2146546 92.2104692,34.510236 C92.1996145,34.5037034 92.186615,34.5008186 92.1529364,34.487953 C90.945347,36.3122659 89.7357771,38.1395486 88.5262123,39.9668571 L88.4662405,39.938398 C88.4940464,39.9761789 88.5211029,40.0145362 88.549778,40.0516635 C89.1760065,40.8626852 89.7960747,41.6780276 90.3048488,42.5708433 C90.4461096,42.8187347 90.5587017,43.078149 90.5276468,43.3707624 C90.5159598,43.4807293 90.480349,43.5979582 90.4224913,43.6913222 Z M109.676969,44.0184869 C110.078473,43.9775704 110.482036,43.9364421 110.899269,43.893895 C111.079531,44.3187413 111.129879,44.7741709 111.046047,45.2385052 C110.901351,46.0396137 110.472267,46.6487872 109.760945,47.048969 C109.656048,47.1079676 109.622144,47.1712324 109.608595,47.2881038 C109.485751,48.3490064 108.923735,49.088053 107.929542,49.4699057 C107.710524,49.5540218 107.605561,49.6540921 107.528076,49.870867 C107.267531,50.5996954 106.756177,51.1055882 106.035051,51.3795721 C105.476673,51.5917396 104.905133,51.5942251 104.341243,51.3810715 C104.258599,51.3498308 104.215408,51.3545108 104.160874,51.4332553 C103.7394,52.042242 103.161234,52.396671 102.423899,52.4937663 C101.832861,52.5715783 101.295532,52.4396604 100.803973,52.1070405 C100.406633,51.838197 100.008431,51.5705981 99.6018668,51.2965474 C99.7993934,50.9740252 99.9937877,50.6565812 100.197082,50.3246723 C100.614128,50.6061088 101.020042,50.8701626 101.415462,51.1490719 C102.134734,51.6564539 103.12271,51.2568823 103.380637,50.467634 C103.34409,50.4416755 103.305971,50.4133035 103.266644,50.3867546 C102.335579,49.7585404 101.404905,49.1298463 100.472826,48.5032023 C100.319555,48.4001801 100.227154,48.2695754 100.239702,48.0781582 C100.252922,47.8763523 100.362956,47.7433646 100.544413,47.6722575 C100.704526,47.6094991 100.852127,47.656895 100.989805,47.7499173 C101.778137,48.282511 102.567008,48.8142731 103.355743,49.346304 C103.790246,49.6394247 104.230097,49.9250171 104.657344,50.2283252 C104.922182,50.4163602 105.210979,50.4351256 105.496568,50.3544122 C106.04632,50.1989806 106.388835,49.826198 106.525124,49.2666148 C106.552599,49.1537944 106.528645,49.0870755 106.426424,49.0184198 C104.700371,47.8596595 102.97752,46.6961843 101.254037,45.5336127 C101.040106,45.3893147 100.953438,45.208002 100.999604,45.0042077 C101.067834,44.7028335 101.402846,44.5565653 101.669677,44.712335 C101.711437,44.7367148 101.751029,44.7649082 101.791183,44.7919695 C103.540292,45.9716912 105.292061,47.1475035 107.034671,48.3367272 C107.232062,48.4714245 107.400983,48.4765522 107.59471,48.3868517 C108.144844,48.1322664 108.440534,47.701007 108.478296,47.0949621 C108.484168,47.0012028 108.450079,46.9358079 108.365469,46.8789408 C106.362716,45.5317859 104.362083,44.1815533 102.361383,42.8313877 C102.033459,42.6100874 102.048116,42.179096 102.390491,42.013223 C102.544875,41.9384396 102.696429,41.9564471 102.839223,42.0532135 C103.160119,42.2706298 103.481678,42.4870286 103.803113,42.7036133 C105.465063,43.8234634 107.128263,44.9414283 108.786597,46.0666391 C108.910995,46.1510423 109.004649,46.1495844 109.13061,46.0906376 C109.880317,45.739723 110.202372,44.7721858 109.699942,44.0596573 C109.689901,44.0454009 109.682769,44.0290714 109.676969,44.0184869 Z M98.4494021,47.7979441 C99.3304375,47.9060226 99.8927926,48.8291859 99.5405287,49.6100091 C99.449041,49.8127859 99.3168941,49.9976731 99.1990027,50.188028 C98.9583731,50.5764917 98.7370292,50.9795417 98.4669453,51.3465376 C98.0883921,51.8609444 97.3486027,51.9613437 96.8215076,51.6057459 C95.8871781,50.97542 95.0138338,50.2667111 94.1664498,49.5258976 C93.178812,48.6624618 92.1979437,47.7913292 91.2145565,46.9230286 C90.9462827,46.6861488 90.7149308,46.4192606 90.58768,46.0794473 C90.4629381,45.7463081 90.471085,45.4197812 90.6694258,45.1105895 C90.9093187,44.7366195 91.1498112,44.3629636 91.3848948,43.9859975 C91.7045775,43.4733146 92.4437412,43.2605492 93.0383361,43.5149047 C93.3605644,43.6527446 93.5739554,43.8527182 93.7911218,44.2296013 C94.084048,43.9680682 94.4256708,43.8646702 94.8009048,43.8833537 C95.0821245,43.8973459 95.3419725,43.9948905 95.5647624,44.1677289 C96.0138726,44.5161925 96.2909969,45.1109463 95.9918712,45.8238504 C96.6326198,45.6006527 97.2040478,45.6964878 97.6466176,46.2163004 C98.0939771,46.7417783 98.0880139,47.3114066 97.6854802,47.9135346 C97.9556097,47.7996943 98.1974504,47.7670626 98.4494021,47.7979441 Z M114.433063,40.4299662 C114.502879,40.5367717 114.46262,40.6059836 114.408649,40.6888726 C113.887426,41.4888876 113.175518,42.064592 112.315184,42.4634495 C111.820456,42.6928069 111.304428,42.8581604 110.768763,42.971518 C110.494076,43.0013804 110.219731,43.0349456 109.94452,43.058098 C109.885025,43.0631201 109.814246,43.0443004 109.762368,43.0134334 C109.112328,42.62689 108.465065,42.2356604 107.816567,41.8465285 C107.168189,41.4574543 106.519021,41.0697183 105.870574,40.6807111 C105.308874,40.3437673 104.748151,40.0052064 104.186246,39.6685984 C103.533715,39.2776927 102.880279,38.8883631 102.227534,38.4978762 C102.038764,38.3849537 101.85371,38.2653857 101.660751,38.1602777 C101.614172,38.1349232 101.533222,38.1344231 101.484361,38.157302 C100.719485,38.5153653 99.9690894,38.9072032 99.1913923,39.2342116 C98.3053158,39.6067336 97.3883319,39.6936516 96.4704031,39.31516 C95.9994767,39.1209565 95.6310559,38.7952019 95.328073,38.3919487 C95.0581392,38.0326728 95.2786359,37.5658434 95.5830794,37.4106553 C96.6522286,36.86564 97.6686148,36.2310474 98.6936471,35.6107399 C99.0664705,35.3851547 99.4330863,35.1486874 99.8125166,34.9349298 C100.189233,34.7227229 100.600088,34.5983288 101.028736,34.5392933 C101.09634,34.5300026 101.168368,34.5383485 101.236534,34.5495451 C102.828202,34.8113986 104.419467,35.0758882 106.01165,35.3344375 C106.090661,35.3472685 106.187106,35.3301101 106.259444,35.2944829 C107.255592,34.8042589 108.249226,34.3090039 109.242271,33.8125172 C109.319322,33.7739819 109.369199,33.7646367 109.444808,33.8315728 C110.031817,34.3509331 110.527855,34.9516242 111.011105,35.5639551 C112.241392,37.1229177 113.347645,38.7690189 114.433063,40.4299662 Z" transform="translate(-87 -33)"/>
</svg>
