<svg xmlns="http://www.w3.org/2000/svg" width="42" height="42" viewBox="-13 -9 42 42">
  <path fill="#FFF" fill-rule="evenodd" d="M13.1281568,8.8782997e-08 L2.79175703,0 C1.42405742,0 0.379077967,0.955429749 0.379077967,2.20592388 L0.379077967,20.3547013 C0.379077967,21.5307235 1.42405742,22.5606252 2.79175703,22.5606252 L13.1281568,22.5606244 C14.4958564,22.5606244 15.5408358,21.5307229 15.5408358,20.3547007 L15.5408358,2.20592381 C15.5408358,0.956806175 14.4958564,8.87829968e-08 13.1281568,8.8782997e-08 Z M8,21.7940761 C7.44985605,21.7940761 7,21.3442201 7,20.7940761 C7,20.2439322 7.44985605,19.7940761 8,19.7940761 C8.55014395,19.7940761 9,20.2439322 9,20.7940761 C9,21.3442201 8.55014395,21.7940761 8,21.7940761 Z M14.0240997,18.5895643 L1.99458565,18.5895643 L1.99458565,2.0197672 L14.025495,2.0197672 L14.0240997,18.5895643 Z"/>
</svg>
