<svg xmlns="http://www.w3.org/2000/svg" width="42" height="42" viewBox="-10 -12 42 42">
  <path fill="#FFF" fill-rule="evenodd" d="M90,34 L109,34 C110.104569,34 111,34.8954305 111,36 L111,46.9795429 C111,48.0841124 110.104569,48.9795429 109,48.9795429 L97.1481341,48.9795429 L92.8888889,53.5271866 L92.8888889,48.9795429 L90,48.9795429 C88.8954305,48.9795429 88,48.0841124 88,46.9795429 L88,36 C88,34.8954305 88.8954305,34 90,34 Z M94.8955078,42.6476596 C94.8955078,42.2140637 94.7878429,41.8544482 94.5725098,41.5688022 C94.3571767,41.2831562 93.972659,41.0158249 93.4189453,40.7668003 C92.841794,40.5031271 92.4880378,40.3214883 92.357666,40.2218784 C92.2272943,40.1222685 92.1621094,40.0094767 92.1621094,39.8834995 C92.1621094,39.7663114 92.2133784,39.6681678 92.315918,39.5890659 C92.4184575,39.5099639 92.5825184,39.4704135 92.8081055,39.4704135 C93.2446311,39.4704135 93.7631806,39.6081075 94.3637695,39.8834995 L94.8955078,38.5431674 C94.2040981,38.2355487 93.5258822,38.0817417 92.8608398,38.0817417 C92.1079064,38.0817417 91.5161154,38.2472673 91.0854492,38.5783237 C90.654783,38.90938 90.4394531,39.3708012 90.4394531,39.962601 C90.4394531,40.2790089 90.4899897,40.5529319 90.5910645,40.7843784 C90.6921392,41.0158248 90.8474111,41.2209009 91.0568848,41.3996128 C91.2663585,41.5783246 91.5805643,41.7628931 91.9995117,41.9533237 C92.4624047,42.1613325 92.7473139,42.2990265 92.854248,42.3664096 C92.9611822,42.4337928 93.0388181,42.5004425 93.0871582,42.5663608 C93.1354983,42.6322791 93.159668,42.7091826 93.159668,42.7970737 C93.159668,42.9376994 93.09961,43.0526885 92.9794922,43.1420444 C92.8593744,43.2314003 92.6704114,43.2760776 92.4125977,43.2760776 C92.113768,43.2760776 91.7856463,43.2284707 91.4282227,43.1332553 C91.070799,43.03804 90.7265642,42.905473 90.3955078,42.7355503 L90.3955078,44.2824253 C90.7089859,44.4318401 91.0107407,44.5365753 91.3007812,44.5966342 C91.5908218,44.6566931 91.9497049,44.6867221 92.3774414,44.6867221 C92.8901393,44.6867221 93.3369122,44.6010296 93.7177734,44.4296421 C94.0986347,44.2582545 94.3901357,44.0180225 94.5922852,43.7089389 C94.7944346,43.3998553 94.8955078,43.0460991 94.8955078,42.6476596 Z M98.6879883,44.5988315 L100.340332,44.5988315 L101.636719,39.9801792 L101.67627,39.9801792 C101.641113,40.6774483 101.621338,41.1154322 101.616943,41.294144 C101.612549,41.4728558 101.610352,41.6354519 101.610352,41.781937 L101.610352,44.5988315 L103.205566,44.5988315 L103.205566,38.1740268 L100.889648,38.1740268 L99.5756836,42.7355503 L99.5405273,42.7355503 L98.2001953,38.1740268 L95.8886719,38.1740268 L95.8886719,44.5988315 L97.4267578,44.5988315 L97.4267578,41.8083042 C97.4267578,41.3717785 97.3959964,40.75948 97.3344727,39.9713901 L97.3740234,39.9713901 L98.6879883,44.5988315 Z M108.791016,42.6476596 C108.791016,42.2140637 108.683351,41.8544482 108.468018,41.5688022 C108.252684,41.2831562 107.868167,41.0158249 107.314453,40.7668003 C106.737302,40.5031271 106.383546,40.3214883 106.253174,40.2218784 C106.122802,40.1222685 106.057617,40.0094767 106.057617,39.8834995 C106.057617,39.7663114 106.108886,39.6681678 106.211426,39.5890659 C106.313965,39.5099639 106.478026,39.4704135 106.703613,39.4704135 C107.140139,39.4704135 107.658688,39.6081075 108.259277,39.8834995 L108.791016,38.5431674 C108.099606,38.2355487 107.42139,38.0817417 106.756348,38.0817417 C106.003414,38.0817417 105.411623,38.2472673 104.980957,38.5783237 C104.550291,38.90938 104.334961,39.3708012 104.334961,39.962601 C104.334961,40.2790089 104.385498,40.5529319 104.486572,40.7843784 C104.587647,41.0158248 104.742919,41.2209009 104.952393,41.3996128 C105.161866,41.5783246 105.476072,41.7628931 105.89502,41.9533237 C106.357912,42.1613325 106.642822,42.2990265 106.749756,42.3664096 C106.85669,42.4337928 106.934326,42.5004425 106.982666,42.5663608 C107.031006,42.6322791 107.055176,42.7091826 107.055176,42.7970737 C107.055176,42.9376994 106.995118,43.0526885 106.875,43.1420444 C106.754882,43.2314003 106.565919,43.2760776 106.308105,43.2760776 C106.009276,43.2760776 105.681154,43.2284707 105.32373,43.1332553 C104.966307,43.03804 104.622072,42.905473 104.291016,42.7355503 L104.291016,44.2824253 C104.604494,44.4318401 104.906249,44.5365753 105.196289,44.5966342 C105.48633,44.6566931 105.845213,44.6867221 106.272949,44.6867221 C106.785647,44.6867221 107.23242,44.6010296 107.613281,44.4296421 C107.994143,44.2582545 108.285644,44.0180225 108.487793,43.7089389 C108.689942,43.3998553 108.791016,43.0460991 108.791016,42.6476596 Z" transform="translate(-88 -34)"/>
</svg>
