<svg xmlns="http://www.w3.org/2000/svg" width="42" height="42" viewBox="-7 -15 42 42">
  <path fill="#FFF" fill-rule="evenodd" d="M86,43 L91,43 C91.5522847,43 92,43.4477153 92,44 C92,44.5522847 91.5522847,45 91,45 L86,45 C85.4477153,45 85,44.5522847 85,44 C85,43.4477153 85.4477153,43 86,43 Z M88,47 L91,47 C91.5522847,47 92,47.4477153 92,48 C92,48.5522847 91.5522847,49 91,49 L88,49 C87.4477153,49 87,48.5522847 87,48 C87,47.4477153 87.4477153,47 88,47 Z M90,51 L91,51 C91.5522847,51 92,51.4477153 92,52 C92,52.5522847 91.5522847,53 91,53 L90,53 C89.4477153,53 89,52.5522847 89,52 C89,51.4477153 89.4477153,51 90,51 Z M112,43.2208298 L111.999957,52.942473 C111.999957,53.5266185 111.421937,54 110.705583,54 L95.294373,54 C94.5797455,54 94.0000002,53.5273228 94.0000002,52.942473 L94,43.2208298 L94,43.4719777 L103,49.6688613 L112,43.4719777 L112,43.2208298 Z M95.3846154,42 L110.615385,42 L103,46.8833191 L95.3846154,42 Z" transform="translate(-85 -42)"/>
</svg>
